<?xml version="1.0" encoding="UTF-8" standalone="no"?>
<!-- Created with Inkscape (http://www.inkscape.org/) -->

<svg
   xmlns:dc="http://purl.org/dc/elements/1.1/"
   xmlns:cc="http://creativecommons.org/ns#"
   xmlns:rdf="http://www.w3.org/1999/02/22-rdf-syntax-ns#"
   xmlns:svg="http://www.w3.org/2000/svg"
   xmlns="http://www.w3.org/2000/svg"
   xmlns:sodipodi="http://sodipodi.sourceforge.net/DTD/sodipodi-0.dtd"
   xmlns:inkscape="http://www.inkscape.org/namespaces/inkscape"
   width="744.09448819"
   height="1052.3622047"
   id="svg2"
   version="1.1"
   inkscape:version="0.48.5 r10040"
   sodipodi:docname="near_friends.svg">
  <defs
     id="defs4" />
  <sodipodi:namedview
     id="base"
     pagecolor="#ffffff"
     bordercolor="#666666"
     borderopacity="1.0"
     inkscape:pageopacity="0.0"
     inkscape:pageshadow="2"
     inkscape:zoom="0.12449716"
     inkscape:cx="-1559.4682"
     inkscape:cy="1713.7956"
     inkscape:document-units="px"
     inkscape:current-layer="layer1"
     showgrid="false"
     inkscape:window-width="1232"
     inkscape:window-height="723"
     inkscape:window-x="0"
     inkscape:window-y="0"
     inkscape:window-maximized="0" />
  <metadata
     id="metadata7">
    <rdf:RDF>
      <cc:Work
         rdf:about="">
        <dc:format>image/svg+xml</dc:format>
        <dc:type
           rdf:resource="http://purl.org/dc/dcmitype/StillImage" />
        <dc:title></dc:title>
      </cc:Work>
    </rdf:RDF>
  </metadata>
  <g
     inkscape:label="Layer 1"
     inkscape:groupmode="layer"
     id="layer1">
    <text
       sodipodi:linespacing="125%"
       id="text3234"
       y="294.81967"
       x="-539.88281"
       style="font-size:20px;font-style:normal;font-variant:normal;font-weight:normal;font-stretch:normal;line-height:125%;letter-spacing:0px;word-spacing:0px;fill:#000000;fill-opacity:1;stroke:none;font-family:Monospace;-inkscape-font-specification:Monospace"
       xml:space="preserve"><tspan
         style="font-size:60px;fill:#ff0000"
         y="294.81967"
         x="-539.88281"
         id="tspan3236"
         sodipodi:role="line" /></text>
    <rect
       style="fill:#ffffff;fill-opacity:1;stroke:#1f5065;stroke-width:1.48687350999999990;stroke-opacity:1"
       id="rect3008"
       width="3251.5762"
       height="1586.9226"
       x="-3220.7136"
       y="-627.14417"
       inkscape:export-filename="/Users/victor/Desktop/feature_graphic.png"
       inkscape:export-xdpi="28.330284"
       inkscape:export-ydpi="28.330284" />
    <path
       style="fill:#1f5065;fill-opacity:1;stroke:#000000;stroke-width:2.0483849px;stroke-linecap:butt;stroke-linejoin:miter;stroke-opacity:1"
       d="m -1714.0221,-48.1208 c 64.8546,-361.0479 585.6706,-264.7953 505.5662,106.9468 -230.0584,-290.8446 -309.7365,-3.2579 -416.6755,6.9445 -41.8025,3.988 -97.3583,-66.7524 -88.8907,-113.8913 z"
       id="path3156"
       inkscape:connector-curvature="0"
       sodipodi:nodetypes="scss"
       inkscape:export-filename="/Users/victor/Desktop/hi_res_icon.png"
       inkscape:export-xdpi="37.071602"
       inkscape:export-ydpi="37.071602" />
    <path
       sodipodi:type="arc"
       style="opacity:0.98000004;fill:#f6c659;fill-opacity:1;stroke:none"
       id="path3158"
       sodipodi:cx="274.6124"
       sodipodi:cy="-1851.0707"
       sodipodi:rx="39.327209"
       sodipodi:ry="39.327209"
       d="m 313.93961,-1851.0707 a 39.327209,39.327209 0 1 1 -78.65442,0 39.327209,39.327209 0 1 1 78.65442,0 z"
       transform="matrix(2.2193764,0,0,2.2193764,-1980.4277,3742.0394)"
       inkscape:export-filename="/Users/victor/Desktop/hi_res_icon.png"
       inkscape:export-xdpi="37.071602"
       inkscape:export-ydpi="37.071602" />
    <path
       sodipodi:nodetypes="scss"
       inkscape:connector-curvature="0"
       id="path3166"
       d="m -1834.7454,167.3937 c -320.6463,-178.179 -61.0672,-639.8417 264.7642,-443.7732 -349.6342,123.5857 -103.2941,292.0235 -128.2392,396.5117 -9.7512,40.8443 -94.6612,70.5248 -136.525,47.2615 z"
       style="fill:#1f5065;fill-opacity:1;stroke:none"
       inkscape:export-filename="/Users/victor/Desktop/hi_res_icon.png"
       inkscape:export-xdpi="37.071602"
       inkscape:export-ydpi="37.071602" />
    <path
       transform="matrix(0.71805149,-2.100008,2.100008,0.71805149,1665.3701,1645.7296)"
       d="m 313.93961,-1851.0707 a 39.327209,39.327209 0 1 1 -78.65442,0 39.327209,39.327209 0 1 1 78.65442,0 z"
       sodipodi:ry="39.327209"
       sodipodi:rx="39.327209"
       sodipodi:cy="-1851.0707"
       sodipodi:cx="274.6124"
       id="path3168"
       style="opacity:0.98000004;fill:#f6c659;fill-opacity:1;stroke:none"
       sodipodi:type="arc"
       inkscape:export-filename="/Users/victor/Desktop/hi_res_icon.png"
       inkscape:export-xdpi="37.071602"
       inkscape:export-ydpi="37.071602" />
    <path
       style="fill:#1f5065;fill-opacity:1;stroke:#000000;stroke-width:2.0483849px;stroke-linecap:butt;stroke-linejoin:miter;stroke-opacity:1"
       d="m -1659.5823,351.5708 c -265.7517,252.8592 -628.9085,-132.6678 -344.5351,-385.137 13.6104,370.5836 247.8891,185.7373 340.1711,240.7287 36.0732,21.4962 39.0609,111.3947 4.364,144.4083 z"
       id="path3172"
       inkscape:connector-curvature="0"
       sodipodi:nodetypes="scss"
       inkscape:export-filename="/Users/victor/Desktop/hi_res_icon.png"
       inkscape:export-xdpi="37.071602"
       inkscape:export-ydpi="37.071602" />
    <path
       sodipodi:type="arc"
       style="opacity:0.98000004;fill:#f6c659;fill-opacity:1;stroke:none"
       id="path3174"
       sodipodi:cx="274.6124"
       sodipodi:cy="-1851.0707"
       sodipodi:rx="39.327209"
       sodipodi:ry="39.327209"
       d="m 313.93961,-1851.0707 a 39.327209,39.327209 0 1 1 -78.65442,0 39.327209,39.327209 0 1 1 78.65442,0 z"
       transform="matrix(-1.7900174,-1.3120477,1.3120477,-1.7900174,795.94598,-2547.8545)"
       inkscape:export-filename="/Users/victor/Desktop/hi_res_icon.png"
       inkscape:export-xdpi="37.071602"
       inkscape:export-ydpi="37.071602" />
    <path
       sodipodi:nodetypes="scss"
       inkscape:connector-curvature="0"
       id="path3178"
       d="m -1433.8622,239.4649 c 161.154,329.5317 -315.795,559.8216 -470.9726,212.649 357.4981,98.5527 251.7313,-180.4959 331.9465,-251.9489 31.3562,-27.9309 117.9858,-3.7242 139.0261,39.2999 z"
       style="fill:#1f5065;fill-opacity:1;stroke:none"
       inkscape:export-filename="/Users/victor/Desktop/hi_res_icon.png"
       inkscape:export-xdpi="37.071602"
       inkscape:export-ydpi="37.071602" />
    <path
       transform="matrix(-1.7899451,1.3121464,-1.3121464,-1.7899451,-3459.8339,-2974.835)"
       d="m 313.93961,-1851.0707 a 39.327209,39.327209 0 1 1 -78.65442,0 39.327209,39.327209 0 1 1 78.65442,0 z"
       sodipodi:ry="39.327209"
       sodipodi:rx="39.327209"
       sodipodi:cy="-1851.0707"
       sodipodi:cx="274.6124"
       id="path3180"
       style="opacity:0.98000004;fill:#f6c659;fill-opacity:1;stroke:none"
       sodipodi:type="arc"
       inkscape:export-filename="/Users/victor/Desktop/hi_res_icon.png"
       inkscape:export-xdpi="37.071602"
       inkscape:export-ydpi="37.071602" />
    <path
       style="fill:#1f5065;fill-opacity:1;stroke:none"
       d="m -1468.7247,-6.0576 c 364.4679,-41.5314 421.7921,484.9929 42.7022,514.9867 212.5514,-303.874 -85.8037,-297.6323 -126.2785,-397.1402 -15.8214,-38.8978 35.9909,-112.4242 83.5763,-117.8465 z"
       id="path3184"
       inkscape:connector-curvature="0"
       sodipodi:nodetypes="scss"
       inkscape:export-filename="/Users/victor/Desktop/hi_res_icon.png"
       inkscape:export-xdpi="37.071602"
       inkscape:export-ydpi="37.071602" />
    <path
       sodipodi:type="arc"
       style="opacity:0.98000004;fill:#f6c659;fill-opacity:1;stroke:none"
       id="path3186"
       sodipodi:cx="274.6124"
       sodipodi:cy="-1851.0707"
       sodipodi:rx="39.327209"
       sodipodi:ry="39.327209"
       d="m 313.93961,-1851.0707 a 39.327209,39.327209 0 1 1 -78.65442,0 39.327209,39.327209 0 1 1 78.65442,0 z"
       transform="matrix(0.63717648,2.1259438,-2.1259438,0.63717648,-5175.8089,826.896)"
       inkscape:export-filename="/Users/victor/Desktop/hi_res_icon.png"
       inkscape:export-xdpi="37.071602"
       inkscape:export-ydpi="37.071602" />
    <rect
       style="opacity:0.3125;fill:none;stroke:none"
       id="rect4267"
       width="1243"
       height="1243"
       x="-2216.4255"
       y="-455.1828"
       ry="0"
       inkscape:export-filename="/Users/victor/Desktop/hi_res_icon.png"
       inkscape:export-xdpi="37.071602"
       inkscape:export-ydpi="37.071602" />
  </g>
</svg>
