<?xml version="1.0" encoding="UTF-8" standalone="no"?>
<!-- Created with Inkscape (http://www.inkscape.org/) -->

<svg
   xmlns:dc="http://purl.org/dc/elements/1.1/"
   xmlns:cc="http://creativecommons.org/ns#"
   xmlns:rdf="http://www.w3.org/1999/02/22-rdf-syntax-ns#"
   xmlns:svg="http://www.w3.org/2000/svg"
   xmlns="http://www.w3.org/2000/svg"
   xmlns:sodipodi="http://sodipodi.sourceforge.net/DTD/sodipodi-0.dtd"
   xmlns:inkscape="http://www.inkscape.org/namespaces/inkscape"
   width="744.09448819"
   height="1052.3622047"
   id="svg2"
   version="1.1"
   inkscape:version="0.48.5 r10040"
   sodipodi:docname="near_friends.svg">
  <defs
     id="defs4" />
  <sodipodi:namedview
     id="base"
     pagecolor="#ffffff"
     bordercolor="#666666"
     borderopacity="1.0"
     inkscape:pageopacity="0.0"
     inkscape:pageshadow="2"
     inkscape:zoom="0.12449716"
     inkscape:cx="-129.71675"
     inkscape:cy="1713.7956"
     inkscape:document-units="px"
     inkscape:current-layer="layer1"
     showgrid="false"
     inkscape:window-width="1232"
     inkscape:window-height="723"
     inkscape:window-x="0"
     inkscape:window-y="0"
     inkscape:window-maximized="0" />
  <metadata
     id="metadata7">
    <rdf:RDF>
      <cc:Work
         rdf:about="">
        <dc:format>image/svg+xml</dc:format>
        <dc:type
           rdf:resource="http://purl.org/dc/dcmitype/StillImage" />
        <dc:title></dc:title>
      </cc:Work>
    </rdf:RDF>
  </metadata>
  <g
     inkscape:label="Layer 1"
     inkscape:groupmode="layer"
     id="layer1">
    <text
       sodipodi:linespacing="125%"
       id="text3234"
       y="294.81967"
       x="-539.88281"
       style="font-size:20px;font-style:normal;font-variant:normal;font-weight:normal;font-stretch:normal;line-height:125%;letter-spacing:0px;word-spacing:0px;fill:#000000;fill-opacity:1;stroke:none;font-family:Monospace;-inkscape-font-specification:Monospace"
       xml:space="preserve"><tspan
         style="font-size:60px;fill:#ff0000"
         y="294.81967"
         x="-539.88281"
         id="tspan3236"
         sodipodi:role="line" /></text>
    <path
       style="fill:#1f5065;fill-opacity:1;stroke:#000000;stroke-width:2.0483849px;stroke-linecap:butt;stroke-linejoin:miter;stroke-opacity:1"
       d="M 269.93383,334.26572 C 334.7885,-26.782213 855.60446,69.470374 775.50009,441.21251 545.44165,150.36786 465.76353,437.95456 358.8246,448.15695 c -41.8025,3.988 -97.35829,-66.75236 -88.89077,-113.89123 z"
       id="path3156"
       inkscape:connector-curvature="0"
       sodipodi:nodetypes="scss" />
    <path
       sodipodi:type="arc"
       style="opacity:0.98000004;fill:#f6c659;fill-opacity:1;stroke:none"
       id="path3158"
       sodipodi:cx="274.6124"
       sodipodi:cy="-1851.0707"
       sodipodi:rx="39.327209"
       sodipodi:ry="39.327209"
       d="m 313.93961,-1851.0707 a 39.327209,39.327209 0 1 1 -78.65442,0 39.327209,39.327209 0 1 1 78.65442,0 z"
       transform="matrix(2.2193764,0,0,2.2193764,3.5284006,4124.4259)" />
    <path
       sodipodi:nodetypes="scss"
       inkscape:connector-curvature="0"
       id="path3166"
       d="M 149.21052,549.78019 C -171.43564,371.60122 88.143516,-90.061537 413.97487,106.00701 64.340657,229.59263 310.68075,398.03051 285.73564,502.51863 c -9.75115,40.84438 -94.66116,70.52487 -136.52512,47.26156 z"
       style="fill:#1f5065;fill-opacity:1;stroke:none" />
    <path
       transform="matrix(0.71805149,-2.100008,2.100008,0.71805149,3649.3261,2028.1161)"
       d="m 313.93961,-1851.0707 a 39.327209,39.327209 0 1 1 -78.65442,0 39.327209,39.327209 0 1 1 78.65442,0 z"
       sodipodi:ry="39.327209"
       sodipodi:rx="39.327209"
       sodipodi:cy="-1851.0707"
       sodipodi:cx="274.6124"
       id="path3168"
       style="opacity:0.98000004;fill:#f6c659;fill-opacity:1;stroke:none"
       sodipodi:type="arc" />
    <path
       style="fill:#1f5065;fill-opacity:1;stroke:#000000;stroke-width:2.0483849px;stroke-linecap:butt;stroke-linejoin:miter;stroke-opacity:1"
       d="M 324.3738,733.95725 C 58.622064,986.81645 -304.53474,601.2895 -20.161332,348.82031 -6.5509543,719.40388 227.72778,534.55762 320.00981,589.54898 c 36.07305,21.49616 39.06086,111.39465 4.36399,144.40827 z"
       id="path3172"
       inkscape:connector-curvature="0"
       sodipodi:nodetypes="scss" />
    <path
       sodipodi:type="arc"
       style="opacity:0.98000004;fill:#f6c659;fill-opacity:1;stroke:none"
       id="path3174"
       sodipodi:cx="274.6124"
       sodipodi:cy="-1851.0707"
       sodipodi:rx="39.327209"
       sodipodi:ry="39.327209"
       d="m 313.93961,-1851.0707 a 39.327209,39.327209 0 1 1 -78.65442,0 39.327209,39.327209 0 1 1 78.65442,0 z"
       transform="matrix(-1.7900174,-1.3120477,1.3120477,-1.7900174,2779.902,-2165.468)" />
    <path
       sodipodi:nodetypes="scss"
       inkscape:connector-curvature="0"
       id="path3178"
       d="M 550.09388,621.85139 C 711.24791,951.38308 234.29887,1181.673 79.12119,834.50038 436.61923,933.0531 330.85243,654.00448 411.06763,582.55149 c 31.35627,-27.93096 117.98579,-3.72417 139.02625,39.2999 z"
       style="fill:#1f5065;fill-opacity:1;stroke:none" />
    <path
       transform="matrix(-1.7899451,1.3121464,-1.3121464,-1.7899451,-1475.8778,-2592.4485)"
       d="m 313.93961,-1851.0707 a 39.327209,39.327209 0 1 1 -78.65442,0 39.327209,39.327209 0 1 1 78.65442,0 z"
       sodipodi:ry="39.327209"
       sodipodi:rx="39.327209"
       sodipodi:cy="-1851.0707"
       sodipodi:cx="274.6124"
       id="path3180"
       style="opacity:0.98000004;fill:#f6c659;fill-opacity:1;stroke:none"
       sodipodi:type="arc" />
    <path
       style="fill:#1f5065;fill-opacity:1;stroke:none"
       d="M 515.23131,376.32889 C 879.69924,334.79748 937.02348,861.32173 557.93342,891.31562 770.48483,587.4416 472.12975,593.68323 431.65501,494.17535 c -15.82148,-38.89781 35.9909,-112.42418 83.5763,-117.84646 z"
       id="path3184"
       inkscape:connector-curvature="0"
       sodipodi:nodetypes="scss" />
    <path
       sodipodi:type="arc"
       style="opacity:0.98000004;fill:#f6c659;fill-opacity:1;stroke:none"
       id="path3186"
       sodipodi:cx="274.6124"
       sodipodi:cy="-1851.0707"
       sodipodi:rx="39.327209"
       sodipodi:ry="39.327209"
       d="m 313.93961,-1851.0707 a 39.327209,39.327209 0 1 1 -78.65442,0 39.327209,39.327209 0 1 1 78.65442,0 z"
       transform="matrix(0.63717648,2.1259438,-2.1259438,0.63717648,-3191.8529,1209.2825)" />
    <rect
       style="opacity:0.3125;fill:none;stroke:none"
       id="rect4267"
       width="1243"
       height="1243"
       x="-232.46953"
       y="-72.796341"
       ry="0"
       inkscape:export-filename="/Users/victor/Desktop/ic_launcher.png"
       inkscape:export-xdpi="10.426387"
       inkscape:export-ydpi="10.426387" />
  </g>
</svg>
